<svg width="116" height="50" viewBox="0 0 116 50" fill="none" xmlns="http://www.w3.org/2000/svg">
<path d="M0 3C0 1.34315 1.34315 0 3 0H113C114.657 0 116 1.34315 116 3V47C116 48.6569 114.657 50 113 50H3C1.34315 50 0 48.6569 0 47V3Z" fill="white"/>
<path d="M21.824 29.4C24.72 29.4 26.656 27.784 26.656 25.512C26.656 20.952 19.568 22.952 19.568 20.632C19.568 19.832 20.416 19.24 21.68 19.24C23.056 19.24 24.064 20.04 24.048 21.16H26.384C26.384 18.872 24.384 17.208 21.616 17.208C18.864 17.208 16.96 18.744 16.96 20.984C16.96 25.512 24.032 23.48 24.032 25.896C24.032 26.712 23.232 27.368 21.904 27.368C20.368 27.368 19.264 26.488 19.264 25.256H16.848C16.848 27.656 18.928 29.4 21.824 29.4ZM31.4524 29.32C32.5244 29.32 33.4844 28.776 34.0604 27.896V29H36.3964V20.808H33.9964V25.416C33.9964 26.456 33.2284 27.208 32.2844 27.208C31.3404 27.208 30.7644 26.504 30.7644 25.512V20.808H28.3644V25.928C28.3644 27.896 29.6124 29.32 31.4524 29.32ZM38.4775 17.128V29H40.8455V28.008C41.4855 28.824 42.4455 29.32 43.5815 29.32C45.8535 29.32 47.4695 27.496 47.4695 24.904C47.4695 22.312 45.8695 20.488 43.5815 20.488C42.4615 20.488 41.5175 20.968 40.8775 21.8V17.128H38.4775ZM45.0695 24.904C45.0695 26.216 44.1575 27.16 42.9255 27.16C41.6775 27.16 40.7815 26.2 40.7815 24.904C40.7815 23.608 41.6775 22.648 42.9255 22.648C44.1735 22.648 45.0695 23.608 45.0695 24.904ZM52.6686 29.352C54.9406 29.352 56.5246 28.12 56.5246 26.424C56.5086 23.336 51.1006 24.632 51.1166 23.064C51.1166 22.536 51.7086 22.152 52.4606 22.152C53.4206 22.152 54.1246 22.616 54.1406 23.288H56.2526C56.2366 21.64 54.6526 20.456 52.4606 20.456C50.4606 20.456 48.9566 21.608 48.9406 23.208C48.9406 26.664 54.2046 25.032 54.2206 26.68C54.2206 27.24 53.5806 27.656 52.7006 27.656C51.6606 27.656 50.8926 27.08 50.8926 26.264H48.8606C48.8606 28.056 50.4446 29.352 52.6686 29.352ZM66.4999 23.736C66.2439 21.848 64.4519 20.488 62.3079 20.488C59.7159 20.488 57.8439 22.344 57.8439 24.904C57.8439 27.464 59.7319 29.32 62.3079 29.32C64.4199 29.32 66.2119 27.96 66.5159 26.072L64.2759 25.784C64.0519 26.664 63.2679 27.304 62.3239 27.304C61.1399 27.304 60.2439 26.296 60.2439 24.904C60.2439 23.512 61.1559 22.504 62.3239 22.504C63.2359 22.504 64.0519 23.144 64.2599 24.024L66.4999 23.736ZM72.6923 20.504C71.7803 20.504 70.9803 21.032 70.5003 21.848V20.808H68.1963V29H70.5963V24.648C70.5963 23.416 71.2843 22.536 72.3243 22.536C72.6763 22.536 73.2043 22.648 73.6683 22.84V20.712C73.3483 20.584 73.0123 20.504 72.6923 20.504ZM77.6476 20.808H75.2476V29H77.6476V20.808ZM75.0556 18.36C75.0556 19.16 75.6316 19.72 76.4476 19.72C77.2636 19.72 77.8396 19.16 77.8396 18.36C77.8396 17.576 77.2636 17.016 76.4476 17.016C75.6316 17.016 75.0556 17.576 75.0556 18.36ZM79.915 17.128V29H82.283V28.008C82.923 28.824 83.883 29.32 85.019 29.32C87.291 29.32 88.907 27.496 88.907 24.904C88.907 22.312 87.307 20.488 85.019 20.488C83.899 20.488 82.955 20.968 82.315 21.8V17.128H79.915ZM86.507 24.904C86.507 26.216 85.595 27.16 84.363 27.16C83.115 27.16 82.219 26.2 82.219 24.904C82.219 23.608 83.115 22.648 84.363 22.648C85.611 22.648 86.507 23.608 86.507 24.904ZM94.8261 27.48C93.7381 27.48 92.9381 26.728 92.7301 25.576L99.1461 25.592C99.1781 25.416 99.1781 25.08 99.1781 24.872C99.1781 22.28 97.3861 20.488 94.7621 20.488C92.1221 20.488 90.2501 22.28 90.2501 24.84C90.2501 27.48 92.1221 29.32 94.7621 29.32C96.6981 29.32 98.3781 28.28 98.8101 26.856L96.7141 26.392C96.4261 27.016 95.6901 27.48 94.8261 27.48ZM92.7141 24.136C92.9221 23.048 93.6581 22.328 94.7141 22.328C95.8021 22.328 96.6021 23.096 96.7461 24.136H92.7141Z" fill="#4A99D3"/>
</svg>
